<svg version="1.1" id="Layer_1" xmlns="http://www.w3.org/2000/svg" xmlns:xlink="http://www.w3.org/1999/xlink" x="0px" y="0px" width="100%" viewBox="0 0 1024 1024" xml:space="preserve">
<path fill="#4176FD" opacity="1.000000" stroke="none" 
	d="
M554.389282,769.391785 
	C619.680176,707.198364 684.725708,645.260010 749.743530,583.292603 
	C758.784241,574.676025 768.224487,566.396729 776.540588,557.119446 
	C791.950317,539.928650 795.157898,513.624512 784.601440,494.634125 
	C775.186035,477.696381 759.745667,468.436798 741.158264,467.265900 
	C715.612427,465.656738 689.910828,466.379395 664.276184,466.405823 
	C656.589294,466.413727 656.154236,466.612213 656.240906,459.069641 
	C656.374512,447.444366 653.245728,447.712006 667.659119,447.127106 
	C689.792053,446.228943 711.945984,445.183655 734.085266,445.299652 
	C754.701599,445.407593 773.463806,452.141541 788.988220,466.049042 
	C811.996704,486.661011 818.718628,519.430176 806.551453,548.492004 
	C801.441895,560.696472 793.864014,571.073608 784.322754,580.152283 
	C716.479553,644.706238 648.661804,709.286926 580.838623,773.861938 
	C571.907471,782.365356 563.014160,790.908447 554.063477,799.391113 
	C536.490967,816.044678 515.170776,821.981201 491.579163,820.422485 
	C469.614288,818.971191 451.739380,809.476013 436.855499,792.970581 
	C412.421356,765.874084 387.144226,739.538330 362.261566,712.845520 
	C339.992096,688.955933 340.361542,654.752075 362.840607,630.730225 
	C404.168854,586.565674 445.074127,542.000977 486.728851,498.147522 
	C519.201172,463.961182 552.528748,430.586761 585.503540,396.878235 
	C600.302124,381.750336 615.194031,366.713715 629.994507,351.587585 
	C643.109009,338.184448 643.635254,320.413361 630.742798,306.967499 
	C606.870422,282.070374 582.916870,257.241669 558.549500,232.831390 
	C537.679688,211.924866 497.433563,212.554993 476.725098,233.790680 
	C402.494354,309.911316 328.384399,386.149719 254.187653,462.303528 
	C233.804428,483.224365 229.732162,523.707520 254.894897,545.441711 
	C267.215607,556.083679 281.821716,560.677917 297.684509,561.000977 
	C318.831116,561.431702 339.993835,561.118591 361.149323,561.038696 
	C368.896515,561.009399 368.896088,560.896973 369.011658,568.479919 
	C369.177155,579.339417 369.205383,579.727661 358.746185,580.487976 
	C333.810333,582.300598 308.805206,583.845459 283.878357,580.882385 
	C248.395248,576.664490 221.601654,551.266357 216.680923,516.259277 
	C212.968826,489.850586 220.695602,466.221619 239.297653,446.982635 
	C296.058380,388.278259 353.123535,329.868225 410.060608,271.334320 
	C427.257446,253.655243 444.473572,235.994537 461.591522,218.239273 
	C491.288788,187.436371 545.305725,187.561432 575.014038,218.449387 
	C598.924683,243.309525 623.073059,267.941254 646.947021,292.836365 
	C667.045532,313.794586 666.687317,344.953918 646.311523,365.674042 
	C601.207581,411.540253 555.833618,457.144104 511.047180,503.317963 
	C488.314636,526.754761 466.691071,551.264282 444.430786,575.162842 
	C422.513000,598.693604 400.461609,622.100342 378.396698,645.493469 
	C364.213531,660.530334 363.698425,682.763367 377.767303,697.915588 
	C403.617737,725.756592 429.531097,753.542786 455.717987,781.066650 
	C478.280823,804.781616 517.032898,805.180359 540.735291,782.390564 
	C545.180115,778.116943 549.667419,773.887451 554.389282,769.391785 
z"/>
</svg>