<?xml version="1.0" encoding="UTF-8"?>
<svg version="1.1" xmlns="http://www.w3.org/2000/svg" width="1286" height="1286">
<path d="M0 0 C6.96369268 5.10670796 10.70781518 13.51038295 14.9296875 20.8359375 C15.6889072 22.14354629 16.44868077 23.45083364 17.20898438 24.7578125 C18.74748832 27.40427847 20.28305111 30.0524135 21.81591797 32.70214844 C24.86026146 37.96348659 27.92698284 43.21173536 30.9921875 48.4609375 C32.13025611 50.41273256 33.2682762 52.36455591 34.40625 54.31640625 C38.38656224 61.13932296 42.37441242 67.95780884 46.3671875 74.7734375 C46.72440887 75.38331512 47.08163025 75.99319275 47.44967651 76.62155151 C51.96283139 84.32444156 56.50217794 92.01093223 61.06738281 99.68310547 C67.87195417 111.12046976 74.54962036 122.6207083 81.13085938 134.18725586 C85.39492471 141.67951127 89.70144741 149.14512726 94.0546875 156.5859375 C102.06114629 170.27220155 109.97393854 184.01194266 117.88769531 197.75195312 C124.56175114 209.33775608 131.24694748 220.91640077 137.9921875 232.4609375 C148.45350974 250.36897835 158.79566677 268.34469983 169.06726074 286.36209106 C173.70056846 294.48718112 178.38582786 302.58003507 183.1171875 310.6484375 C188.541092 319.89998301 193.80697766 329.23226639 199.02612305 338.60058594 C202.63987237 345.07676633 206.322046 351.50274538 210.10571289 357.88085938 C215.83685784 367.54835052 221.41529194 377.30479967 227.0234375 387.04394531 C228.96925616 390.42113753 230.91771041 393.79679346 232.8671875 397.171875 C239.08392284 407.935545 245.28493405 418.70760065 251.44311523 429.50488281 C255.35415372 436.35715207 259.29531308 443.19175855 263.2421875 450.0234375 C273.96440866 468.58940341 284.60181395 487.20256819 295.12939453 505.87963867 C299.83248613 514.20890515 304.61671944 522.49038604 309.40649414 530.77001953 C314.01554209 538.7455991 318.56117858 546.75496102 323.08032227 554.78173828 C327.14783555 561.99511725 331.27981825 569.16967631 335.4296875 576.3359375 C340.97432706 585.91233126 346.41125704 595.54330143 351.79492188 605.2109375 C355.75555695 612.30354835 359.8138178 619.33243688 363.9296875 626.3359375 C369.51603173 635.84716677 374.91087498 645.45306019 380.24365234 655.10839844 C384.77861537 663.30806076 389.39234235 671.45838139 394.0546875 679.5859375 C399.16563301 688.49667667 404.23500683 697.4288597 409.2421875 706.3984375 C413.95725212 714.84427715 418.71732766 723.26202592 423.52661133 731.65454102 C428.83853012 740.92729403 434.09033146 750.23372203 439.34228516 759.54052734 C441.54785267 763.4444928 443.76052082 767.34441538 445.97314453 771.24438477 C447.60138266 774.12051969 449.2211149 777.00131727 450.83984375 779.8828125 C452.8960635 783.53972414 454.98872018 787.17147603 457.11328125 790.7890625 C464.95132878 804.29523044 471.79476666 818.64464853 468.296875 834.640625 C465.3283546 845.44204796 460.32277086 854.02715618 450.9921875 860.4609375 C443.10734319 864.79031147 436.24762276 866.56914351 427.24682617 866.62207031 C426.60026062 866.62703522 425.95369507 866.63200012 425.28753662 866.63711548 C423.16173197 866.65163899 421.03600225 866.65852711 418.91015625 866.6640625 C418.17563044 866.66688988 417.44110462 866.66971725 416.68432045 866.67263031 C412.7873461 866.68759279 408.89040841 866.6968374 404.9934082 866.70117188 C401.01778478 866.70661324 397.04251137 866.73055662 393.06699657 866.75914383 C389.96866471 866.77801893 386.8704124 866.78298907 383.77202797 866.78450775 C382.30957465 866.78748562 380.84712099 866.7953433 379.38472557 866.80869293 C353.46386754 867.02818028 329.56569089 860.16751956 309.9921875 842.4609375 C309.13753906 841.68878906 308.28289063 840.91664063 307.40234375 840.12109375 C297.14665124 830.37107483 290.15543466 818.40780684 283.3046875 806.1484375 C282.26223087 804.29998936 281.21740684 802.45289385 280.17230225 800.60594177 C279.46776054 799.36083251 278.76385954 798.11536047 278.06060791 796.86952209 C274.72530896 790.96737198 271.30156803 785.11840476 267.8671875 779.2734375 C261.32042429 768.10182854 254.99426973 756.81286493 248.69042969 745.50292969 C240.74596982 731.27234171 232.66503419 717.12163757 224.50805664 703.01196289 C220.650418 696.33900854 216.81012319 689.65668174 212.9921875 682.9609375 C208.59981326 675.25931111 204.17750344 667.5754096 199.7421875 659.8984375 C194.40669649 650.66147605 189.09451355 641.41159561 183.8046875 632.1484375 C183.29840317 631.26189987 183.29840317 631.26189987 182.78189087 630.35745239 C179.97472267 625.44134907 177.16915314 620.52433406 174.36425781 615.60693359 C168.51647691 605.35547697 162.64543917 595.11806986 156.7421875 584.8984375 C151.40677632 575.6614296 146.09451378 566.41159602 140.8046875 557.1484375 C140.29840317 556.26189987 140.29840317 556.26189987 139.78189087 555.35745239 C136.97472267 550.44134907 134.16915314 545.52433406 131.36425781 540.60693359 C123.59126137 526.98047644 115.76627448 513.38463801 107.91992188 499.80029297 C106.00989321 496.49160855 104.1022039 493.18158711 102.1953125 489.87109375 C96.15419548 479.38537917 90.09725631 468.90956751 83.9921875 458.4609375 C79.15550857 450.18311619 74.34356808 441.89150674 69.5546875 433.5859375 C68.93134521 432.50497803 68.30800293 431.42401855 67.66577148 430.31030273 C64.53101934 424.87190613 61.40018214 419.43128541 58.2734375 413.98828125 C51.28869543 401.84026508 44.21484327 389.75161342 37.04541016 377.71166992 C31.90573103 369.05769626 26.90204001 360.33301961 21.93313599 351.58056641 C16.46479286 341.95582558 10.82995519 332.43997272 5.10693359 322.96459961 C0.61730186 315.52739537 -3.76353716 308.04096917 -8.0078125 300.4609375 C-12.23920986 306.43467495 -15.87173084 312.66858952 -19.42333984 319.05761719 C-22.07253104 323.81681253 -24.79095824 328.52671014 -27.5703125 333.2109375 C-32.05900614 340.79475556 -36.45042442 348.4332378 -40.8203125 356.0859375 C-41.16481445 356.68923889 -41.50931641 357.29254028 -41.86425781 357.91412354 C-46.45572407 365.95856748 -51.02143448 374.01732979 -55.5703125 382.0859375 C-60.72693687 391.23193428 -65.95826547 400.33314541 -71.21337891 409.42285156 C-75.81289472 417.3812475 -80.38773175 425.35347274 -84.9453125 433.3359375 C-85.27681305 433.91652924 -85.6083136 434.49712097 -85.94985962 435.0953064 C-87.6307992 438.03958837 -89.31133857 440.98409853 -90.99169922 443.92871094 C-93.99514426 449.1914167 -97.00211215 454.45210936 -100.00881958 459.71295166 C-101.67529532 462.62886422 -103.34154232 465.54490748 -105.0078125 468.4609375 C-105.67447807 469.62760479 -106.34114474 470.79427146 -107.0078125 471.9609375 C-107.3378125 472.5384375 -107.6678125 473.1159375 -108.0078125 473.7109375 C-109.0078125 475.4609375 -110.0078125 477.2109375 -111.0078125 478.9609375 C-111.50278984 479.82714973 -111.50278984 479.82714973 -112.00776672 480.71086121 C-112.6745816 481.87778469 -113.34140085 483.04470567 -114.00822449 484.21162415 C-115.67265951 487.12434101 -117.33701889 490.03710105 -119.0012207 492.94995117 C-122.02775827 498.24712138 -125.05488672 503.54394994 -128.08477783 508.83920288 C-129.78865597 511.81707144 -131.49205271 514.79521522 -133.1953125 517.7734375 C-133.52948181 518.35766479 -133.86365112 518.94189209 -134.20794678 519.54382324 C-138.71053196 527.41740812 -143.18248078 535.30770355 -147.6328125 543.2109375 C-152.55417349 551.94387404 -157.57299318 560.61626129 -162.63500977 569.26831055 C-171.72732461 584.80902219 -180.73780322 600.39597365 -189.5703125 616.0859375 C-194.4841506 624.81482073 -199.50012131 633.47921685 -204.56225586 642.12280273 C-209.13340135 649.93770218 -213.64595304 657.78497785 -218.1328125 665.6484375 C-218.47219849 666.24318878 -218.81158447 666.83794006 -219.16125488 667.45071411 C-221.44481208 671.45334068 -223.7263699 675.45710525 -226.0078125 679.4609375 C-233.02419075 691.76635948 -240.07469425 704.05124897 -247.16040039 716.31689453 C-251.46066885 723.76589512 -255.73852606 731.22742489 -260.00158691 738.69775391 C-272.59309181 760.76152883 -285.28969939 782.75523406 -298.296875 804.57666016 C-299.76695874 807.05490919 -301.22105504 809.54109028 -302.6640625 812.03515625 C-316.7102382 836.2040283 -335.89401583 855.84098584 -363.4969635 863.58456421 C-374.6218241 866.36153659 -385.82405998 866.78525751 -397.23046875 866.796875 C-398.7487347 866.80332721 -400.26699949 866.81005721 -401.78526306 866.81704712 C-404.9425647 866.82891329 -408.09975777 866.83273864 -411.25708008 866.83154297 C-415.26663578 866.83133934 -419.27548632 866.85873458 -423.28487492 866.89308739 C-426.41221715 866.91550529 -429.53939288 866.91937615 -432.66680717 866.91832352 C-434.14373663 866.92065355 -435.62067257 866.92932688 -437.09752083 866.94498825 C-451.67375447 867.08523308 -463.52102023 864.7445469 -474.12890625 854.390625 C-483.05672263 844.9877505 -485.65121979 835.5636046 -485.3203125 822.78125 C-484.42941965 806.49371707 -473.9730103 792.13854988 -466.0078125 778.4609375 C-464.77728873 776.32630257 -463.54810724 774.19089327 -462.3203125 772.0546875 C-459.84060069 767.74392039 -457.35453979 763.43691652 -454.86328125 759.1328125 C-450.87182503 752.23208707 -446.90210894 745.31907459 -442.9453125 738.3984375 C-442.611828 737.81515686 -442.27834351 737.23187622 -441.93475342 736.63092041 C-436.57379593 727.24867646 -431.27970156 717.82985856 -426.01098633 708.39550781 C-420.95046423 699.33976082 -415.81256874 690.32997684 -410.65185547 681.33105469 C-408.84143952 678.17048891 -407.03558058 675.00734805 -405.23046875 671.84375 C-398.68200592 660.36782769 -392.11786515 648.90154751 -385.5078125 637.4609375 C-378.31156123 625.00515944 -371.17124428 612.51782699 -364.04150391 600.02392578 C-360.95572676 594.6169872 -357.86629672 589.21213579 -354.77719116 583.80709839 C-353.10392307 580.87929249 -351.43088033 577.95135784 -349.7578125 575.0234375 C-343.51302083 564.09505208 -337.26822917 553.16666667 -331.0234375 542.23828125 C-330.52642334 541.36848633 -330.02940918 540.49869141 -329.51733398 539.60253906 C-328.51170749 537.84273336 -327.50601098 536.08296768 -326.50024414 534.32324219 C-324.03627922 530.01200346 -321.57344726 525.70012656 -319.11328125 521.38671875 C-313.62652042 511.77036596 -308.11117891 502.17122678 -302.5703125 492.5859375 C-297.32862393 483.51490792 -292.13828731 474.41696438 -286.99462891 465.29003906 C-282.67170237 457.62325977 -278.31476074 449.97625635 -273.9453125 442.3359375 C-273.43280441 441.43974701 -273.43280441 441.43974701 -272.90994263 440.52545166 C-271.22921456 437.5867526 -269.54805849 434.64829893 -267.86669922 431.70996094 C-265.24520131 427.12802055 -262.62642867 422.54452521 -260.0078125 417.9609375 C-259.04428854 416.27472947 -258.08074652 414.58853175 -257.1171875 412.90234375 C-256.62154297 412.03496582 -256.12589844 411.16758789 -255.61523438 410.27392578 C-186.8984375 290.01953125 -186.8984375 290.01953125 -185.4387207 287.46508789 C-184.48666488 285.79894959 -183.53467892 284.13277136 -182.58276367 282.46655273 C-179.77952664 277.56006414 -176.97446562 272.6546248 -174.16796875 267.75 C-167.30234052 255.7491936 -160.4569318 243.73767097 -153.66259766 231.69628906 C-148.63450016 222.78901669 -143.56044542 213.90837652 -138.47851562 205.03173828 C-137.0227865 202.48711218 -135.56955055 199.94107986 -134.1171875 197.39453125 C-128.68998376 187.8807479 -123.23637116 178.3827475 -117.7578125 168.8984375 C-106.76971864 149.86841479 -95.85174049 130.80359041 -85.15380859 111.60864258 C-81.20878649 104.55116264 -77.16616025 97.55679945 -73.0703125 90.5859375 C-67.38790896 80.91228394 -61.9013964 71.14057039 -56.47509766 61.32128906 C-52.21873638 53.62330822 -47.90573014 45.96203653 -43.5065918 38.34472656 C-40.73680239 33.53636843 -38.0389407 28.6971459 -35.3984375 23.81640625 C-34.78234619 22.68734863 -34.16625488 21.55829102 -33.53149414 20.39501953 C-32.33921024 18.20575738 -31.15802586 16.01040028 -29.98999023 13.80810547 C-26.21163565 6.90124435 -22.4631749 1.91138682 -15.5078125 -1.9140625 C-9.58801148 -3.39401275 -5.34989882 -2.59725378 0 0 Z " fill="#000000" transform="translate(656.0078125,186.5390625)"/>
<path d="M0 0 C0.72703125 0.04382813 1.4540625 0.08765625 2.203125 0.1328125 C10.28711679 2.48857698 13.43431771 8.04919568 17.3425293 15.05004883 C17.99928805 16.26247738 18.65594238 17.47496251 19.3125 18.6875 C20.01097783 19.94850784 20.71128323 21.20850496 21.41333008 22.4675293 C22.48694383 24.39379847 23.55921672 26.32069971 24.62547302 28.25105286 C27.96132303 34.28995023 31.43655533 40.2429562 34.9375 46.1875 C39.99838636 54.82245462 44.95379412 63.51157609 49.85839844 72.23608398 C53.73346558 79.11473841 57.69230944 85.94052081 61.6875 92.75 C67.17418209 102.10410522 72.50566184 111.53658245 77.78100586 121.01123047 C81.0338261 126.84295802 84.33555195 132.63649709 87.75 138.375 C92.46057471 146.29466594 96.95218504 154.3316967 101.43969727 162.37939453 C105.14837223 169.02683978 108.89538782 175.64984124 112.6875 182.25 C117.91301275 191.35409017 123.01564079 200.52390833 128.10205078 209.70629883 C132.75317358 218.09750589 137.45666026 226.45759464 142.18725586 234.80419922 C145.40198384 240.47969954 148.59089992 246.16836265 151.75 251.875 C156.5659247 260.57150898 161.45504608 269.2258769 166.35546875 277.875 C168.70091438 282.01554797 171.03551172 286.1619898 173.36328125 290.3125 C173.95133545 291.35897705 174.53938965 292.4054541 175.14526367 293.48364258 C176.27394726 295.49265158 177.40051192 297.50285292 178.5246582 299.5144043 C179.28975708 300.87432495 179.28975708 300.87432495 180.0703125 302.26171875 C180.51648926 303.05795654 180.96266602 303.85419434 181.42236328 304.67456055 C182.72368883 306.92553846 182.72368883 306.92553846 184.41748047 309.03833008 C185.75 310.875 185.75 310.875 185.75 312.875 C62 312.875 -61.75 312.875 -189.25 312.875 C-185.45426768 305.91615741 -181.63721981 298.9938728 -177.6875 292.125 C-173.43213834 284.70209847 -169.20286636 277.26524591 -165 269.8125 C-160.49379412 261.82264772 -155.95163008 253.85405557 -151.38989258 245.89581299 C-145.04346322 234.82238534 -138.79552866 223.70028899 -132.6159668 212.53271484 C-128.38474748 204.89380587 -124.08616084 197.29728099 -119.73730469 189.72485352 C-115.86119176 182.96758307 -112.04836261 176.17623764 -108.25 169.375 C-102.52957826 159.13710353 -96.74128144 148.9405703 -90.90722656 138.76708984 C-88.02958695 133.74521023 -85.15962125 128.71894428 -82.28872681 123.69320679 C-81.25085744 121.87650087 -80.21275213 120.05993 -79.17456055 118.2434082 C-76.14462411 112.94188555 -73.11532195 107.64000633 -70.08984375 102.3359375 C-64.05641391 91.76163703 -57.98145857 81.21208671 -51.88867188 70.671875 C-47.78008206 63.55423626 -43.71802527 56.41208534 -39.6875 49.25 C-35.11542668 41.13570156 -30.49147336 33.0531674 -25.8125 25 C-24.9615979 23.52926025 -24.9615979 23.52926025 -24.09350586 22.02880859 C-10.7455259 -0.86415068 -10.7455259 -0.86415068 0 0 Z " fill="#000000" transform="translate(649.25,724.125)"/>
</svg>
